# xmcd CD database file
#
# Track frame offsets:
#	150
#	11162
#	22176
#	31459
#	43314
#	52541
#	63433
#	73572
#	83052
#	93126
#	102640
#	110641
#	120436
#	131748
#	142271
#	152580
#	161781
#	172518
#	184027
#	195812
#	207270
#	218364
#	230185
#	242195
#	253979
#
# Disc length: 3503 seconds
#
# Revision: 0
# Processed by: cddbd v1.5.2PL0 Copyright (c) Steve Scherf et al.
# Submitted via: CDex 1.70beta2
#
DISCID=5e0dad19
DTITLE=Various Artist - When Country Goes Bopin' and Jivin'
DYEAR=1900
DGENRE=Country
TTITLE0=Bill Haley and His Comets - Is It True What They Say About Dixie ?
TTITLE1=Boyd Bennett - Tenesse Rock'n Roll
TTITLE2=Warner Mack - Rock-a-Chica
TTITLE3=Hank Thompson - Shot-Gun Boogie
TTITLE4=Elvis Presley - Western Union
TTITLE5=Jo Ann Campbell - Boogie Woogie Country Girl
TTITLE6=Jim Lowe - Oh Oh Baby
TTITLE7=Buddy Lee - Teen Town USA
TTITLE8=Glenn Reeves - Rock - a - Boogie Lou
TTITLE9=Earl Reed - Flat Foot Sam
TTITLE10=The Bellairs - Are- You Ready
TTITLE11=Roy Alden - Crazy Memories
TTITLE12=Conway Twitty - Fever
TTITLE13=Tommy Faile - The Rest Of My Life
TTITLE14=Arty Lee - Shadago
TTITLE15=Duane Eddy - Because They're Young
TTITLE16=Jericho Brown - Lonesome Drifter
TTITLE17=Jimmy Richs - Lazy Mule
TTITLE18=Kenny Price - Somebody Told Mary
TTITLE19=Glen Mason - Baby Girld Of Mine
TTITLE20=Nicky De Mateo - Crackin Stone
TTITLE21=Don Sargent - The Jelly Coal Man
TTITLE22=Paul Peek - The Riddle Of The Papahoos
TTITLE23=Doc Bagby - Pony Walk
TTITLE24=Tommy Reilly - Rock A Square Dance
EXTD=
EXTT0=
EXTT1=
EXTT2=
EXTT3=
EXTT4=
EXTT5=
EXTT6=
EXTT7=
EXTT8=
EXTT9=
EXTT10=
EXTT11=
EXTT12=
EXTT13=
EXTT14=
EXTT15=
EXTT16=
EXTT17=
EXTT18=
EXTT19=
EXTT20=
EXTT21=
EXTT22=
EXTT23=
EXTT24=
PLAYORDER=
